<svg width="21" height="26" viewBox="0 0 21 26" fill="none" xmlns="http://www.w3.org/2000/svg">
<g id="Group 15">
<g id="Group 11">
<path id="Vector" d="M16.2024 11.0011C16.2024 9.40948 15.5701 7.88309 14.4447 6.75767C13.3193 5.63225 11.7929 5 10.2013 5C8.60972 5 7.08333 5.63225 5.95791 6.75767C4.83249 7.88309 4.20024 9.40948 4.20024 11.0011C4.20024 18.0023 1.19971 20.0027 1.19971 20.0027H19.2029C19.2029 20.0027 16.2024 18.0023 16.2024 11.0011Z" stroke="#2C3652" stroke-width="2" stroke-linecap="round" stroke-linejoin="round"/>
<path id="Vector_2" d="M11.9316 24.0029C11.7558 24.3061 11.5034 24.5577 11.1997 24.7326C10.896 24.9075 10.5518 24.9996 10.2013 24.9996C9.85087 24.9996 9.50658 24.9075 9.20291 24.7326C8.89924 24.5577 8.64685 24.3061 8.47101 24.0029" stroke="#2C3652" stroke-width="2" stroke-linecap="round" stroke-linejoin="round"/>
</g>
<circle id="Ellipse 4" cx="13.5" cy="4.5" r="3.5" fill="#FF3E3E" stroke="white" stroke-width="2"/>
</g>
</svg>
